/* XPM */
static char *bt0_xpm[] = {
/* width height num_colors chars_per_pixel */
"    16    16        8            1",
/* colors */
"` c None",
". c #404040",
"# c #545654",
"a c #808080",
"b c #000000",
"c c #000000",
"d c #000000",
"e c #000000",
/* pixels */
"````````````````",
"`````.````#.#```",
"``.`.```##.a.##`",
"``..````#aaaaa#`",
"``...``#.a#.#a.#",
"```````.aa.`.aa.",
"```````#.a#.#a.#",
"````````#aaaaa#`",
"`........#.a.##`",
"`.``..``.`#.#```",
"`.``..``.```````",
"`.``..``.``...``",
"`.``..``.```..``",
"`.``..``.``.`.``",
"`........`.`````",
"````````````````"
};
