/* XPM */
static char *333_xpm[] = {
/* width height num_colors chars_per_pixel */
"     8     8        8            1",
/* colors */
"` c None",
". c #b00000",
"# c #ff0000",
"a c #000000",
"b c #000000",
"c c #000000",
"d c #000000",
"e c #000000",
/* pixels */
"````````",
"```..```",
"```.#.``",
"`...##.`",
"`.#####.",
"`...##.`",
"```.#.``",
"```..```"
};
