/* XPM */
static char *clear_xpm[] = {
/* width height num_colors chars_per_pixel */
"    16    16        8            1",
/* colors */
"` c None",
". c #484848",
"# c #919191",
"a c #6d6d6d",
"b c #000000",
"c c #000000",
"d c #000000",
"e c #000000",
/* pixels */
"````````````````",
"```````......```",
"``````.######.``",
"``````.######.``",
"`````.######.```",
"`````.#####a.```",
"````.#####a.````",
"````.#####a.````",
"```.#aaa...`````",
"```.#aaaaa.`````",
"``.#aaaaa.``````",
"``.#aaaaa.``````",
"`.#aaaaa.```````",
"`.#aaaaa.```````",
"`.......`.......",
"````````````````"
};
