/* XPM */
static char *debug_run_xpm[] = {
/* width height num_colors chars_per_pixel */
"    16    16        8            1",
/* colors */
"` c None",
". c #404040",
"# c #555753",
"a c #7d7d7d",
"b c #000000",
"c c #000000",
"d c #000000",
"e c #000000",
/* pixels */
"```````..```````",
"`.````....````.`",
"`.```.####.```.`",
"`..`.######.`..`",
"``.`.######.`.``",
"``..`.####.`..``",
"```..`....`..```",
"````........````",
".....##`a##.....",
"````.#`#`##.````",
"``...#`##`#...``",
"``.`.#`###`.`.``",
"`..``.`####``..`",
"`.`````###````.`",
"`.`````##`````.`",
"```````#````````"
};
