/* XPM */
static char *left_xpm[] = {
/* width height num_colors chars_per_pixel */
"    16    16        8            1",
/* colors */
"` c None",
". c #555753",
"# c #555753",
"a c #565653",
"b c #545752",
"c c #000000",
"d c #000000",
"e c #000000",
/* pixels */
"````````````````",
"````````````````",
"````````````````",
"````````````````",
"````b```````````",
"```a#```````````",
"``a#...........`",
"`a#............`",
"`a#............`",
"``a#...........`",
"```a#```````````",
"````b```````````",
"````````````````",
"````````````````",
"````````````````",
"````````````````"
};
