/* XPM */
static char *return_xpm[] = {
/* width height num_colors chars_per_pixel */
"    16    16        8            1",
/* colors */
"` c None",
". c #4c4e4c",
"# c #545654",
"a c #545a54",
"b c #000000",
"c c #000000",
"d c #000000",
"e c #000000",
/* pixels */
"```````a########",
"``####`#########",
"``####`##a```###",
"``##a``##`````##",
"``##```##`#`####",
"``##```##`######",
"`a#a```##`######",
"####```##`##a###",
"####``````.##a``",
"####``````####``",
"`##a``````##a```",
"``##``````##````",
"``##``````##````",
"``###````a##````",
"``####``####````",
"``####``####````"
};
