/* XPM */
static char *right_xpm[] = {
/* width height num_colors chars_per_pixel */
"    16    16        8            1",
/* colors */
"` c None",
". c #555753",
"# c #545653",
"a c #545652",
"b c #565854",
"c c #000000",
"d c #000000",
"e c #000000",
/* pixels */
"````````````````",
"````````````````",
"````````````````",
"````````````````",
"```````````#````",
"```````````.#```",
"`............#``",
"`.............#`",
"`.............a`",
"`............a``",
"```````````.a```",
"```````````b````",
"````````````````",
"````````````````",
"````````````````",
"````````````````"
};
