/* XPM */
static char *step_xpm[] = {
/* width height num_colors chars_per_pixel */
"    16    16        8            1",
/* colors */
"` c None",
". c #4c4a4c",
"# c #545654",
"a c #5c5a5c",
"b c #545254",
"c c #545a54",
"d c #000000",
"e c #000000",
/* pixels */
"````````````````",
"````````````````",
"```````###``````",
"```````###c`````",
"```````b###c````",
"````````.####```",
"`````````#####``",
"``#c``#c```###``",
"``c#``c#```###``",
"`````````#####``",
"````````.###c```",
"```````ac##c````",
"```````c###`````",
"```````##c``````",
"````````````````",
"````````````````"
};
