/* XPM */
static char *until_xpm[] = {
/* width height num_colors chars_per_pixel */
"    16    16        8            1",
/* colors */
"` c None",
". c #4c4a4c",
"# c #545654",
"a c #545254",
"b c #545a54",
"c c #000000",
"d c #000000",
"e c #000000",
/* pixels */
"````````````````",
"````````````````",
"```###``````##``",
"```###b`````##``",
"```a###b````##``",
"````.####```##``",
"`````#####``##``",
"``#b```####`##``",
"``b#```###b`##``",
"`````#####``##``",
"````#####```##``",
"```a####````##``",
"```b###`````##``",
"```###``````##``",
"````````````````",
"````````````````"
};
