/* XPM */
static char *annotate_xpm[] = {
/* width height num_colors chars_per_pixel */
"    16    16        8            1",
/* colors */
"` c None",
". c #555753",
"# c #545652",
"a c #565854",
"b c #555753",
"c c #555753",
"d c #555852",
"e c #000000",
/* pixels */
"````````````````",
"````````````````",
"`b............c`",
"`..............`",
"`..``````````..`",
"`..``````````..`",
"`..``````````..`",
"`..``````````..`",
"`..``````````..`",
"`..``````````..`",
"`..............`",
"`.............d`",
"`....#``````````",
"`.#.#```````````",
"`a`a````````````",
"````````````````"
};
