/* XPM */
static char *apply_xpm[] = {
/* width height num_colors chars_per_pixel */
"    16    16        8            1",
/* colors */
"` c None",
". c #7cbb7a",
"# c #317f5a",
"a c #53a968",
"b c #000000",
"c c #000000",
"d c #000000",
"e c #000000",
/* pixels */
"````````````````",
"````````````````",
"````````````````",
"````````````````",
"```````````.#```",
"``````````.#.```",
"`````````.#.````",
"```#.```.#.`````",
"```.#.`.#.``````",
"````.#a#.```````",
"`````a#a````````",
"``````a`````````",
"````````````````",
"````````````````",
"````````````````",
"````````````````"
};
