/* XPM */
static char *arrow_xpm[] = {
/* width height num_colors chars_per_pixel */
"    16    16       16            1",
/* colors */
"` c None",
". c #fd7900",
"# c #ffffff",
"a c #e3fbfe",
"b c #fd6b2b",
"c c #f8e4db",
"d c #da354b",
"e c #b5bac9",
"f c #000000",
"g c #2c2c2f",
"h c #fefdfc",
"i c #c3dfee",
"j c #8abad5",
"k c #000000",
"l c #999999",
"m c #fbf7f3",
/* pixels */
"````````````````",
"````````````````",
"````````````````",
"````````````````",
"...#....````````",
"...##...````````",
"...###..````````",
"#######.````````",
"...###..````````",
"...##...````````",
"...#....````````",
"````````````````",
"````````````````",
"````````````````",
"````````````````",
"````````````````"
};
