/* XPM */
static char *back_xpm[] = {
/* width height num_colors chars_per_pixel */
"    16    16        8            1",
/* colors */
"` c None",
". c #bc8214",
"# c #dbca8f",
"a c #bdb7a9",
"b c #fcea9c",
"c c #ac7214",
"d c #8c96ac",
"e c #fcfefc",
/* pixels */
"```````cc```````",
"`````acbcaaaaaaa",
"`````cbbceeeeeea",
"````cbbbcca#aaea",
"```cbbbbbbb#c#ea",
"``cbbbbbbbbbbc#a",
"`.bbbbbbbbbbb#.a",
"``.bbbbbbbbbbba#",
"```.eeeee##eee#a",
"````.eee.#..#eba",
"`````.ee.eee.be.",
"`````a.e.aaaa.e.",
"`````de..eeeeab.",
"`````deaaaaaaa.#",
"`````deeeeeeeeea",
"`````ddddddddddd"
};
