/* XPM */
static char *bas_xpm[] = {
/* width height num_colors chars_per_pixel */
"    16    16        8            1",
/* colors */
"` c None",
". c #545654",
"# c #cdcdcd",
"a c #404040",
"b c #002671",
"c c #00269b",
"d c #000000",
"e c #000000",
/* pixels */
"````````````````",
"```........`````",
"```.######a.````",
"```.######aa.```",
"```.######aaa.``",
"```.##bbb####.``",
"```.##b##c###.``",
"```.##b##c###.``",
"```.##bbb####.``",
"```.##b##b###.``",
"```.##b##b###.``",
"```.##bbb####.``",
"```.#########.``",
"```.#########.``",
"```...........``",
"````````````````"
};
