/* XPM */
static const char *bookmark_obj_xpm[] = {
/* width height num_colors chars_per_pixel */
"    16    16       16            1",
/* colors */
"` c #00468c",
". c #74a6e4",
"# c None",
"a c #84b6f4",
"b c #0c569c",
"c c #7caee8",
"d c #84bef4",
"e c #0c5ea0",
"f c #005094",
"g c #8cc1ff",
"h c #7cb2ec",
"i c #0c62a4",
"j c #004a8c",
"k c #74aae4",
"l c #84baf4",
"m c #0c5a9c",
/* pixels */
"################",
"###iiiii########",
"###igggi########",
"###igggi########",
"###igggi########",
"###eddli########",
"###mllle########",
"###baaab########",
"###fhhhf########",
"###fcccf########",
"###jcccj########",
"###`kkk`########",
"###`...`########",
"###`.`.`########",
"###``#``########",
"###`###`########"
};
