/* XPM */
static const char *breakpoint_xpm[] = {
/* width height num_colors chars_per_pixel */
"    16    16       16            1",
/* colors */
"` c None",
". c #3c66bc",
"# c #83acff",
"a c #2853a9",
"b c #6690e6",
"c c #000000",
"d c #000000",
"e c #000000",
"f c #000000",
"g c #000000",
"h c #000000",
"i c #000000",
"j c #000000",
"k c #000000",
"l c #000000",
"m c #000000",
/* pixels */
"````````````````",
"````````````````",
"````````````````",
"````````````````",
"``````````....``",
"`````````.####a`",
"````````.#####ba",
"````````.#####ba",
"````````.#####ba",
"````````.####bba",
"`````````abbbba`",
"``````````aaaa``",
"````````````````",
"````````````````",
"````````````````",
"````````````````"
};
