/* XPM */
static char *close_xpm[] = {
/* width height num_colors chars_per_pixel */
"    16    16        8            1",
/* colors */
"` c None",
". c #787878",
"# c #696969",
"a c #969696",
"b c #000000",
"c c #5a5a5a",
"d c #000000",
"e c #000000",
/* pixels */
"````````````````",
"````````````````",
"````````````````",
"```.#``````#a```",
"```#bc````cb.```",
"````cbc``cbc````",
"`````cbccbc`````",
"``````cbbc``````",
"``````cbbc``````",
"`````cbccbc`````",
"````cbc``cbc````",
"```#bc````cb.```",
"```.#``````#a```",
"````````````````",
"````````````````",
"````````````````"
};
