/* XPM */
static char *cut_xpm[] = {
/* width height num_colors chars_per_pixel */
"    16    16        8            1",
/* colors */
"` c None",
". c #545654",
"# c #646a64",
"a c #646662",
"b c #747a74",
"c c #5c5e5c",
"d c #6c6e6c",
"e c #7c7a74",
/* pixels */
"````````````````",
"``.d````````d.``",
"``d.````````.d``",
"```#a``````aa```",
"````.d````d.````",
"````d.````.d````",
"`````da``ad`````",
"``````.dd.``````",
"``````d..d``````",
"``dcd``..``dce``",
"`.....`..`.....`",
"d.```......```.d",
"c.```......```.c",
"d.```.d``d.```.d",
"`.....````.....`",
"``dcb``````bcd``"
};
