/* XPM */
static char *cut_xpm[] = {
/* width height num_colors chars_per_pixel */
"    16    16        8            1",
/* colors */
"` c None",
". c #4c4e4c",
"# c #545a54",
"a c #646264",
"b c #5c5d5c",
"c c #545654",
"d c #545254",
"e c #545e54",
/* pixels */
"````````````````",
"``cc````````#c``",
"``ccc``````ccc``",
"``dcce````dccd``",
"```#c#````ccc```",
"````#c#``ccc````",
"````bccebcc.````",
"`````cc##cc`````",
"``````cccc``````",
"`cccccaccacccc#`",
"ccccccccccccccc#",
"cccb#cccccccb#c#",
"ccc`.ccccccc`.cc",
"cc#cccc``cc#ccc#",
"cccccc#``ccccccc",
"`##ccc````##c#c`"
};
