/* XPM */
static char *d_xpm[] = {
/* width height num_colors chars_per_pixel */
"    16    16        8            1",
/* colors */
"` c None",
". c #545654",
"# c #cdcdcd",
"a c #404040",
"b c #a70000",
"c c #000000",
"d c #000000",
"e c #000000",
/* pixels */
"````````````````",
"```........`````",
"```.######a.````",
"```.######aa.```",
"```.######aaa.``",
"```.##bbb####.``",
"```.##b#bb###.``",
"```.##b##b###.``",
"```.##b##b###.``",
"```.##b#bb###.``",
"```.##bbb####.``",
"```.#########.``",
"```.#########.``",
"```.#########.``",
"```...........``",
"````````````````"
};
