/* XPM */
static char *bi_xpm[] = {
/* width height num_colors chars_per_pixel */
"    16    16        8            1",
/* colors */
"` c None",
". c #545654",
"# c #cdcdcd",
"a c #404040",
"b c #000000",
"c c #000000",
"d c #000000",
"e c #000000",
/* pixels */
"````````````````",
"```........`````",
"```.######a.````",
"```.######aa.```",
"```.######aaa.``",
"```.###aaa###.``",
"```.####a####.``",
"```.####a####.``",
"```.####a####.``",
"```.####a####.``",
"```.####a####.``",
"```.###aaa###.``",
"```.#########.``",
"```.#########.``",
"```...........``",
"````````````````"
};
