/* XPM */
static char *door_open_xpm[] = {
/* width height num_colors chars_per_pixel */
"    16    16        8            1",
/* colors */
"` c None",
". c #5f5f5f",
"# c #3b3b3b",
"a c #848484",
"b c #a8a8a8",
"c c #000000",
"d c #000000",
"e c #000000",
/* pixels */
"`````.....#.````",
"````.aabbba..```",
"````..abba.##```",
"`````abbbba.````",
"````````````````",
"````#.abba.##```",
"````#abbbba.#```",
"````#abbbba.#```",
"````#abbbba.#```",
"````#abbbba.#```",
"````#abbbba.#```",
"````#abbbba.#```",
"````#abbbba.#```",
"````#.abba.##```",
"````..abba.#.```",
"`````.......````"
};
