/* XPM */
static char *findnext_xpm[] = {
/* width height num_colors chars_per_pixel */
"    16    16        8            1",
/* colors */
"` c None",
". c #555753",
"# c #525a52",
"a c #545853",
"b c #555555",
"c c #000000",
"d c #000000",
"e c #000000",
/* pixels */
"````````````````",
"``.......```````",
"`.........``````",
"...`````..#`````",
"..```````.a``.``",
"..```````..``..`",
"..```````..`....",
"..```````..`....",
"..```````..``..`",
"...`````..b``.``",
"`..........`````",
"``..........````",
"``````````...```",
"```````````...``",
"````````````..``",
"````````````````"
};
