/* XPM */
static char *folder_xpm[] = {
/* width height num_colors chars_per_pixel */
"    16    16        8            1",
/* colors */
"` c #545654",
". c None",
"# c #848284",
"a c #666b66",
"b c #64625c",
"c c #a0a09c",
"d c #747774",
"e c #8c928c",
/* pixels */
"................",
".`````..........",
"```````.........",
"`````````````...",
"``````````````..",
"``..............",
"`b.`````````````",
"`a.`````````````",
"`d.`````````````",
"`#.`````````````",
"`e.`````````````",
"`c.`````````````",
"`c.`````````````",
"add````````````a",
".a````````````a.",
"................"
};
