/* XPM */
static char *gui_xpm[] = {
/* width height num_colors chars_per_pixel */
"    16    16        8            1",
/* colors */
"` c #2c64ac",
". c #999574",
"# c #99cbf4",
"a c None",
"b c #6d7892",
"c c #eaf9fc",
"d c #84c0ec",
"e c #b9def9",
/* pixels */
"aaaaaaaaaaaaaaaa",
"aaaaaaaaaaaaaaaa",
"aa````````````aa",
"aa`ddd##eeecc`aa",
"aa````````````aa",
"aa.cccccccccc.aa",
"aa.cccccccccc.aa",
"aa.cccccccccc.aa",
"aa.cccccccccc.aa",
"aa.cccccccccc.aa",
"aa.cccccccccc.aa",
"aabccccccccccbaa",
"aabccccccccccbaa",
"aabbbbbbbbbbbbaa",
"aaaaaaaaaaaaaaaa",
"aaaaaaaaaaaaaaaa"
};
