/* XPM */
static char *help_xpm[] = {
/* width height num_colors chars_per_pixel */
"    16    16        8            1",
/* colors */
"` c None",
". c #545654",
"# c #545e54",
"a c #5c5a4c",
"b c #545a54",
"c c #5c5a5c",
"d c #000000",
"e c #000000",
/* pixels */
"````````````````",
"````#.....b#````",
"```.........b```",
"``.....aab...b``",
"`#...b````b....`",
"`....a`.b`a....`",
"`........`.....`",
"`......```.....`",
"`......``......`",
"`......``......`",
"`b.....``......`",
"`#............c`",
"``b....``.....``",
"```b...``....```",
"````.......c````",
"````````````````"
};
