/* XPM */
static char *information_xpm[] = {
/* width height num_colors chars_per_pixel */
"    16    16        8            1",
/* colors */
"` c None",
". c #545652",
"# c #555753",
"a c #565854",
"b c #545653",
"c c #000000",
"d c #000000",
"e c #000000",
/* pixels */
"````````````````",
"````.######a````",
"```.########a```",
"``.####``####a``",
"`.#####``#####a`",
"`##############`",
"`######``######`",
"`######``######`",
"`######``######`",
"`######``######`",
"`######``######`",
"`b#####``#####a`",
"``b####``####a``",
"```b########a```",
"````b######a````",
"````````````````"
};
