/* XPM */
static char *manual_xpm[] = {
/* width height num_colors chars_per_pixel */
"    16    16        8            1",
/* colors */
"` c None",
". c #555753",
"# c #848484",
"a c #ecf3fa",
"b c #000000",
"c c #000000",
"d c #000000",
"e c #000000",
/* pixels */
"`````````...````",
"``````....#.````",
"```....####.````",
"```.#######...``",
"```.###...#.`.``",
"```.#..aa.#.`.``",
"```.#.aa..#.`.``",
"```.#...###.`.``",
"```.#######.`.``",
"```.#######.`.``",
"```.#######.`.``",
"```.####....`.``",
"```.#....````.``",
"```...```````.``",
"````..........``",
"````````````````"
};
