/* XPM */
static char *newfile_xpm[] = {
/* width height num_colors chars_per_pixel */
"    16    16        8            1",
/* colors */
"` c None",
". c #4c4e4c",
"# c #545654",
"a c #5c5a4c",
"b c #5c5a5c",
"c c #545a54",
"d c #5c5a54",
"e c #000000",
/* pixels */
"`#######c`#####`",
"`#########`####`",
"`##````####`###`",
"`##`````c##c`##`",
"`##`````####c`d`",
"`##``###`#####``",
"`##```````.####`",
"`##``#####`b###`",
"`##`````````a##`",
"`##``######``##`",
"`##``````````##`",
"`##``###`````##`",
"`##``````````##`",
"`##``````````##`",
"`##############`",
"`##############`"
};
