/* XPM */
static char *notwholeword_xpm[] = {
/* width height num_colors chars_per_pixel */
"    16    16        8            1",
/* colors */
"` c None",
". c #545654",
"# c #545a54",
"a c #404040",
"b c #808080",
"c c #000000",
"d c #000000",
"e c #000000",
/* pixels */
"````````````````",
"`..............`",
"`.............#`",
"`..``````````..`",
"`..```......`..`",
"`..```......`.#`",
"`..``````...`..`",
"`..`........`..`",
"`..`........`.#`",
"`..`..#```..`..`",
"`..`........`..`",
"`..`.......ab`ba",
"`..````````babab",
"`..........`bab`",
"`..........babab",
"```````````ab`ba"
};
