/* XPM */
static char *preference_xpm[] = {
/* width height num_colors chars_per_pixel */
"    16    16        8            1",
/* colors */
"` c None",
". c #545654",
"# c #848284",
"a c #646264",
"b c #545a54",
"c c #000000",
"d c #000000",
"e c #000000",
/* pixels */
"````````````````",
"````````````````",
"``............``",
"``.``````````.``",
"``.``````````.``",
"``.``````..b`.``",
"``.`````ab..`.``",
"``.``.`#....`.``",
"``.`..b...b``.``",
"``.`.....b```.``",
"``.``b...````.``",
"``.```..`````.``",
"``.``````````.``",
"``............``",
"````````````````",
"````````````````"
};
