/* XPM */
static char *prjfolderopen_xpm[] = {
/* width height num_colors chars_per_pixel */
"    16    16        8            1",
/* colors */
"` c #4c4e4c",
". c None",
"# c #545654",
"a c #545a54",
"b c #000000",
"c c #000000",
"d c #000000",
"e c #000000",
/* pixels */
"................",
".....##########.",
".....##########.",
"..............#.",
"...##########.#.",
"...##########.#.",
"............#.#.",
".##########.#.#.",
".##########.#...",
".##########.#...",
".##########.#...",
".######aa##.....",
".###a######.....",
".#########`.....",
".######a###.....",
"................"
};
