/* XPM */
static char *buildall_xpm[] = {
/* width height num_colors chars_per_pixel */
"    16    16        8            1",
/* colors */
"` c #174f80",
". c #7497ac",
"# c #b4d4cb",
"a c #ba9644",
"b c #f1ecd3",
"c c None",
"d c #a77520",
"e c #7a7755",
/* pixels */
"ccaaaddaaaaccccc",
"ccabbdbdbbaacccc",
"ccadddbbdb#aaccc",
"ccdbbbbbbd##aacc",
"cabbbbbbbdbbbacc",
"cdbbddbbd...bacc",
"cdbdbdbdbbbbbacc",
"cddbbddbb..bb.cc",
"ccdb#`.b.#.b.#.c",
"cceb`#`.##..##.c",
"cceb`#..#####..c",
"cceb`#`.####.``c",
"cceb.`.`..````.c",
"ccebbbbb`.`bb#cc",
"cceeeeeee``eeecc",
"cccccccccccccccc"
};
