/* XPM */
static char *redo_xpm[] = {
/* width height num_colors chars_per_pixel */
"    16    16        8            1",
/* colors */
"` c None",
". c #545654",
"# c #5c5a4c",
"a c #545a54",
"b c #5c5a5c",
"c c #000000",
"d c #000000",
"e c #000000",
/* pixels */
"````````````````",
"````````````````",
"````````````````",
"`````````...````",
"`````````....```",
"`````````....a``",
"```#..........``",
"``#...........``",
"``....```b....``",
"``..a````..a.```",
"``..a````..a````",
"``...a``````````",
"``.....`````````",
"```#...`````````",
"````````````````",
"````````````````"
};
