/* XPM */
static char *redo_xpm[] = {
/* width height num_colors chars_per_pixel */
"    16    16        8            1",
/* colors */
"` c None",
". c #555753",
"# c #555555",
"a c #58584f",
"b c #565753",
"c c #5b5b5b",
"d c #545853",
"e c #555853",
/* pixels */
"````````````````",
"````````````````",
"````````````````",
"`````````.``````",
"`````````..`````",
"`````````#..````",
"```#.........```",
"``a...........``",
"``b.`````c...```",
"``..`````...````",
"``..`````..`````",
"``d..````.``````",
"```e...`````````",
"````d..`````````",
"````````````````",
"````````````````"
};
