/* XPM */
static char *refresh_xpm[] = {
/* width height num_colors chars_per_pixel */
"    16    16        8            1",
/* colors */
"` c None",
". c #4c4a4c",
"# c #545654",
"a c #545254",
"b c #5c5a5c",
"c c #4c4e4c",
"d c #545a54",
"e c #000000",
/* pixels */
"````````````````",
"````````````````",
"````.d#####.````",
"```##########```",
"``.####cc####.``",
"``d###````b###``",
"``d##``````###``",
"``##c``````b##``",
"```````````###``",
"```````````###``",
"```###````a###``",
"``###d``b#####``",
"`############```",
"`d#######d##````",
"``d##d``````````",
"```d##``````````"
};
