/* XPM */
static char *saveall_xpm[] = {
/* width height num_colors chars_per_pixel */
"    16    16        8            1",
/* colors */
"` c None",
". c #555753",
"# c #555753",
"a c #555853",
"b c #555753",
"c c #555753",
"d c #545854",
"e c #000000",
/* pixels */
"````````````````",
"`c........#`````",
"`.d`````````````",
"`.`c........#```",
"`.`.d```````````",
"`.`.`b........a`",
"`.`.`..........`",
"`.`.`..........`",
"`.`.`..........`",
"`#`.`..........`",
"```.`..``````..`",
"```#`..`....`..`",
"`````..`.`..`..`",
"`````b.`.`..`.a`",
"````````````````",
"````````````````"
};
