/* XPM */
static char *save_xpm[] = {
/* width height num_colors chars_per_pixel */
"    16    16        8            1",
/* colors */
"` c #555753",
". c None",
"# c #555753",
"a c #555753",
"b c #555852",
"c c #000000",
"d c #000000",
"e c #000000",
/* pixels */
"................",
".a````````````#.",
".``````````````.",
".``..........``.",
".``..........``.",
".``..........``.",
".``..........``.",
".``````````````.",
".``````````````.",
".``..........``.",
".``.````````.``.",
".``.``..````.``.",
".``.``..````.``.",
".``.``..````.``.",
".#`.````````.`b.",
"................"
};
