/* XPM */
static char *shift_l_edit_xpm[] = {
/* width height num_colors chars_per_pixel */
"    16    16        8            1",
/* colors */
"` c None",
". c #555753",
"# c #555753",
"a c #555753",
"b c #555753",
"c c #58584e",
"d c #59594e",
"e c #000000",
/* pixels */
"````````````````",
"````````````````",
"`..`````````````",
"`..`````````````",
"`..`````````````",
"`..``c#.````````",
"`..`cb.#````````",
"`..`b.........``",
"`..`a.........``",
"`..`da.#````````",
"`..``d#.````````",
"`..`````````````",
"`..`````````````",
"`..`````````````",
"````````````````",
"````````````````"
};
