/* XPM */
static char *show_linenum_xpm[] = {
/* width height num_colors chars_per_pixel */
"    16    16        8            1",
/* colors */
"` c None",
". c #0026ff",
"# c #97a7ff",
"a c #008000",
"b c #c8ffc8",
"c c #000000",
"d c #000000",
"e c #000000",
/* pixels */
"````````````````",
"````````````````",
"````````````````",
"`````..`````..``",
"`````.#`aa```.#`",
"`````.#``ab``.#`",
"`````.#``ab``.#`",
"`````.#``ab``.#`",
"`````.#``ab``.#`",
"`````.#``ab``.#`",
"`````.#`aaab`.#`",
"`.`.`..#````..#`",
"``````##`````##`",
"````````````````",
"````````````````",
"````````````````"
};
