/* XPM */
static char *struct_obj_xpm[] = {
/* width height num_colors chars_per_pixel */
"    16    16        8            1",
/* colors */
"` c #342a9c",
". c #34aac2",
"# c #4082be",
"a c #9caacc",
"b c #3b569e",
"c c #9cd6cc",
"d c None",
"e c #64aac9",
/* pixels */
"dddddddddddddddd",
"dddddddddddddddd",
"dddddc#bbb#adddd",
"ddddb##..e##bddd",
"dddb#...#.e.#bdd",
"dda#e#ddddd..#ad",
"dd##....de.#.##d",
"ddbe#.#.d..e..bd",
"ddb..e..d.e.#e`d",
"ddbe#..ed..#..bd",
"dd##.e..d.e#.##d",
"dda#.#e.d...ebad",
"dddb#...#.e.#bdd",
"ddddb#b..##bbddd",
"dddddc#bbb#adddd",
"dddddddddddddddd"
};
