/* XPM */
static char *tools_xpm[] = {
/* width height num_colors chars_per_pixel */
"    16    16        8            1",
/* colors */
"` c None",
". c #545654",
"# c #848284",
"a c #646664",
"b c #545a54",
"c c #000000",
"d c #000000",
"e c #000000",
/* pixels */
"`.........ba````",
"....`......b.```",
"b...#``......b``",
"`b..b```......``",
"```..b```.....``",
"````b.b`b.......",
"`````...b..b...b",
"``````...bb`...b",
"`````bbb..``..b`",
"````b..b....````",
"```b...b.....```",
"``b...b``.....``",
"`b....````.....`",
"b...b`````#.....",
"b..b```````.....",
"`bb`````````...b"
};
