/* XPM */
static char *uncomment_xpm[] = {
/* width height num_colors chars_per_pixel */
"    16    16        8            1",
/* colors */
"` c None",
". c #6d8bb9",
"# c #355883",
"a c #ed1c24",
"b c #f3676f",
"c c #c7cdcf",
"d c #5c7ca9",
"e c #000000",
/* pixels */
"````````````````",
"````````````````",
"`````.#``ab``ab`",
"````c##```abab``",
"````.#d````ab```",
"````d#.```abab``",
"```c##c``ab``ab`",
"```.#d``````````",
"```d#.``````````",
"``c##c``````````",
"``.#d```````````",
"``d#.```````````",
"``##c```````````",
"``#.````````````",
"````````````````",
"````````````````"
};
