/* XPM */
static char *alias_xpm[] = {
/* width height num_colors chars_per_pixel */
"    16    16        8            1",
/* colors */
"` c None",
". c #0080c0",
"# c #c0dcc0",
"a c #808000",
"b c #000080",
"c c #800080",
"d c #008080",
"e c #800000",
/* pixels */
"````````````````",
"````````````````",
"````````````````",
"````````````````",
"````````````````",
"````........````",
"````........````",
"````........````",
"````````````````",
"````........````",
"````........````",
"````........````",
"````````````````",
"````````````````",
"````````````````",
"````````````````"
};
