/* XPM */
static char *class_obj_xpm[] = {
/* width height num_colors chars_per_pixel */
"    16    16        8            1",
/* colors */
"` c None",
". c #3c9e3f",
"# c #bcbe9c",
"a c #7cbe6c",
"b c #fcfefc",
"c c #3c5e3c",
"d c #c5debc",
"e c #3c7e5c",
/* pixels */
"````````````````",
"````````````````",
"`````deeeeed````",
"````ee.....ee```",
"```e.........e``",
"``#e..abbba..e#`",
"``...abd.ab...e`",
"``e..db.......c`",
"``e..db.......c`",
"``e..db.......c`",
"``...abd.ab..ee`",
"``#e..abbba..c#`",
"```e........ee``",
"````ee....ece```",
"`````#eccce#````",
"````````````````"
};
