/* XPM */
static char *enum_private_obj_xpm[] = {
/* width height num_colors chars_per_pixel */
"    16    16        8            1",
/* colors */
"` c None",
". c #cc9278",
"# c #cc3235",
"a c #ddcfbd",
"b c #9d703e",
"c c #f06a6f",
"d c #c9b39a",
"e c #fcfefc",
/* pixels */
"````abbbbba`````",
"```.bbbbbbb.````",
"``.b.dddddbb.```",
"`ab..eeeeedbba``",
"`bbbbeeaddbbbb``",
"`bbbbeedbbbbbb``",
"`bbbbeeeee.bbb``",
"`bbbbeedaaaaaa``",
"`bbbbeea#######`",
"`abbbeee#.....#`",
"``.bbdda#.ccc.#`",
"```.bbba#ccccc#`",
"````abba#ccccc#`",
"````````#.....#`",
"````````#######`",
"````````````````"
};
