/* XPM */
static char *enum_protected_obj_xpm[] = {
/* width height num_colors chars_per_pixel */
"    16    16        8            1",
/* colors */
"` c None",
". c #b6924f",
"# c #fcda84",
"a c #c8b399",
"b c #fcea9c",
"c c #9e6e3e",
"d c #e0cfbd",
"e c #fcfefc",
/* pixels */
"````dcccccd`````",
"```.c.ccc.c.````",
"``.c.aaaaa.c.```",
"`dc..eeeeeaccd``",
"`cccceedaa.cc.``",
"`cccceeaccc.cc``",
"`cccceeeee.ddc``",
"`cccceea..d..d``",
"`.ccceeacd.bb.``",
"`dccceeee.bbbb.`",
"``.ccaad.b####b.",
"```.cccd.######.",
"````dcccd.####.`",
"``````````.##.``",
"```````````cc```",
"````````````````"
};
