/* XPM */
static char *enum_obj_xpm[] = {
/* width height num_colors chars_per_pixel */
"    16    16        8            1",
/* colors */
"` c None",
". c #ae885e",
"# c #e3d1c2",
"a c #c8b199",
"b c #94612f",
"c c #fcfefc",
"d c #a1774c",
"e c #b99b77",
/* pixels */
"````#ddbdd#`````",
"```eb.ddd.be````",
"``ebeaaaaa.be```",
"`#beecccccadb#``",
"`ddddcc#aa.dd.``",
"`ddddcceddd.dd``",
"`bbbbcccccebbb``",
"`dbbbccaeedbbd``",
"`.bddccaddddd.``",
"`#bddcccccadb#``",
"``ebdaaaaa.be```",
"```ebdddddbe````",
"````#dbbbd#`````",
"````````````````",
"````````````````",
"````````````````"
};
