/* XPM */
static char *funptr_protected_xpm[] = {
/* width height num_colors chars_per_pixel */
"    16    16        8            1",
/* colors */
"` c None",
". c #e87401",
"# c #a77e1c",
"a c #ee8805",
"b c #feda8d",
"c c #f2990c",
"d c #000000",
"e c #000000",
/* pixels */
"````````````````",
"````````````````",
"````````````````",
"````````````````",
"`........````#``",
"`.aaaaaa.```##``",
"`.a````a.``#b#``",
"`.a`ccca.`#bb###",
"`.a````a.#bbbbbb",
"`.a`ccca.`#bb###",
"`.a`cc`a.``#b#``",
"`.aaaaaa.```##``",
"`........````#``",
"````````````````",
"````````````````",
"````````````````"
};
