/* XPM */
static char *funptr_public_xpm[] = {
/* width height num_colors chars_per_pixel */
"    16    16        8            1",
/* colors */
"` c None",
". c #266226",
"# c #058149",
"a c #338233",
"b c #62aa70",
"c c #3f9f3f",
"d c #000000",
"e c #000000",
/* pixels */
"````````````````",
"````````````````",
"````````````````",
"````````````````",
"........````#```",
".aaaaaa.```##```",
".a````a.``#b#```",
".a`ccca.`#bb####",
".a````a.#bbbbbbb",
".a`ccca.`#bb####",
".a`cc`a.``#b#```",
".aaaaaa.```##```",
"........````#```",
"````````````````",
"````````````````",
"````````````````"
};
