/* XPM */
static char *module_obj_xpm[] = {
/* width height num_colors chars_per_pixel */
"    16    16       32            1",
/* colors */
"` c #f9f1bb",
". c #edd1a6",
"# c #e5c9a1",
"a c #bf8231",
"b c #c58332",
"c c #dbbf9e",
"d c #c17a2d",
"e c #d7b998",
"f c #bf752a",
"g c #c1772b",
"h c #d7b897",
"i c #b76d28",
"j c #bb712a",
"k c #ceab8b",
"l c #a96023",
"m c #93551f",
"n c #ae6325",
"o c #a55c22",
"p c #a05921",
"q c #a25922",
"r c #c7a082",
"s c #713c17",
"t c #9e7058",
"u c #794f40",
"v c None",
"w c #000000",
"x c #000000",
"y c #000000",
"z c #000000",
"A c #000000",
"B c #000000",
"C c #000000",
/* pixels */
"vvvvvvvvvvvvvvvv",
"vvvvvvvvvvvvvvvv",
"vvvvvvvvsvvvvvvv",
"vvvaddddmddddavv",
"vvvgc##ktc##kgvv",
"vvvf#`.ht#`.hfvv",
"vvvj#..et#..ejvv",
"vvvikherukherivv",
"vvsmtttuuutttmsv",
"vvvnc##kuc##knvv",
"vvvl#`.ht#`.hlvv",
"vvvo#..et#..eovv",
"vvvqkhertkherqvv",
"vvvbppppmppppbvv",
"vvvvvvvvsvvvvvvv",
"vvvvvvvvvvvvvvvv"
};
