/* XPM */
static char *property_var_xpm[] = {
/* width height num_colors chars_per_pixel */
"    16    16        8            1",
/* colors */
"` c None",
". c #5e3f46",
"# c #7e3f4d",
"a c #be5eb5",
"b c #9e5f8d",
"c c #000000",
"d c #000000",
"e c #000000",
/* pixels */
"`````````````..`",
"````````````.``.",
"````````````.``.",
"````````````...`",
"``````####``.```",
"`````#aaaa.`.```",
"````#aaaaab.````",
"````#aaaaab.````",
"````#aaaaab.````",
"````#aaaabb.````",
"`````.bbbb.`````",
"``````....``````",
"````````````````",
"````````````````",
"````````````````",
"````````````````"
};
