/* XPM */
static char *struct_protected_xpm[] = {
/* width height num_colors chars_per_pixel */
"    16    16        8            1",
/* colors */
"` c #044a7c",
". c #0797fc",
"# c #b4922c",
"a c #96d4fc",
"b c #f9eec0",
"c c None",
"d c #a47e1c",
"e c #55b5fc",
/* pixels */
"cccccccccccccccc",
"ccccc`````cccccc",
"cccc`.....`ccccc",
"ccc`.......`cccc",
"cc`...aaa...`ccc",
"c`...baeaa...`cc",
"c`...be......`cc",
"c`...abae....`cc",
"c`.....aba.##`cc",
"c`......eb#bb#cc",
"c`...e..a#bbbb#c",
"cc`..bbb#bbbbbb#",
"ccc`....dbbbbbbd",
"cccc`....dbbbbdc",
"ccccc`````dbbdcc",
"cccccccccccddccc"
};
