/* XPM */
static char *struct_private_obj_xpm[] = {
/* width height num_colors chars_per_pixel */
"    16    16        8            1",
/* colors */
"` c None",
". c #47a4c0",
"# c #cc3435",
"a c #f06a6f",
"b c #3f71af",
"c c #ec928c",
"d c #fcfefc",
"e c #3c3e9c",
/* pixels */
"````````````````",
"````````````````",
"`````.bbbbb.````",
"````bbb...bbb```",
"```bb.......bb``",
"``.b...ddd...b.`",
"``bb..d...d..bb`",
"``b...d.......b`",
"``b....ddd....e`",
"``b......#######",
"``bb..d..#ccccc#",
"``.b...dd#caaac#",
"```bb....#aaaaa#",
"````bbb..#aaaaa#",
"`````.bbe#ccccc#",
"`````````#######"
};
