/* XPM */
static char *struct_protected_obj_xpm[] = {
/* width height num_colors chars_per_pixel */
"    16    16        8            1",
/* colors */
"` c None",
". c #3fa2c2",
"# c #b59129",
"a c #fceaaf",
"b c #3f70ae",
"c c #a47e1c",
"d c #3c3e9c",
"e c #9cbebc",
/* pixels */
"````````````````",
"````````````````",
"`````ebbbbbe````",
"````bbb...bbb```",
"```bb.......bb``",
"``eb...aaa...be`",
"``bb..a...a..bb`",
"``b...a.......b`",
"``b....aaa.##.d`",
"``b.......#aa#b`",
"``bb..a..#aaaa#`",
"``eb...a#aaaaaa#",
"```bb...caaaaaac",
"````bbb..caaaac`",
"`````ebbdbcaac``",
"```````````cc```"
};
