/* XPM */
static char *union_obj_xpm[] = {
/* width height num_colors chars_per_pixel */
"    16    16        8            1",
/* colors */
"` c None",
". c #7c7e2c",
"# c #bcbe5c",
"a c #9c9e5c",
"b c #d4d6ac",
"c c #d4d67c",
"d c #acaa7c",
"e c #acaa54",
/* pixels */
"````````````````",
"````````````````",
"`````beeeeeb````",
"````eedcccdee```",
"```edbbbbbbbde``",
"``bebb##b##bbeb`",
"``edbb`aba`bbde`",
"``.cbb`aba`bbce`",
"``.cbb`aba`bbce`",
"``.cbb`aba`bbce`",
"``edbb`a#a`bbde`",
"``b.bb#```#bbeb`",
"```edbbbbbbbde``",
"````e.dcccdee```",
"`````be...eb````",
"````````````````"
};
