/* XPM */
static char *union_protected_obj_xpm[] = {
/* width height num_colors chars_per_pixel */
"    16    16        8            1",
/* colors */
"` c None",
". c #7c7e2c",
"# c #cbcd70",
"a c #fce393",
"b c #aba658",
"c c #fcce6c",
"d c #af881f",
"e c #d4d6ac",
/* pixels */
"````````````````",
"````````````````",
"`````ebbbbbe````",
"````bbb###bbb```",
"```bbeeeeeeebb``",
"``ebee##e##eebe`",
"``bbee`beb`eebb`",
"``.#ee`beb`ee#b`",
"``.#ee`beb`bb#b`",
"``.#ee`bebbaabb`",
"``bbee`b#baaaab`",
"``e.ee#`daaaaaad",
"```bbeeedaccccad",
"````b.b##daaaad`",
"`````eb...daad``",
"```````````dd```"
};
