/* XPM */
static char *union_private_obj_xpm[] = {
/* width height num_colors chars_per_pixel */
"    16    16        8            1",
/* colors */
"` c None",
". c #7c7e2c",
"# c #afad63",
"a c #cc2531",
"b c #d94d4a",
"c c #ef8b87",
"d c #d4d6a3",
"e c #9c9e5c",
/* pixels */
"````````````````",
"````````````````",
"`````d#####d````",
"````###ddd###```",
"```##ddddddd##``",
"``d#dd##d##dd#d`",
"``##dd`ede`dd##`",
"``.ddd`ede`ddd#`",
"``.ddd`ede`ddd#`",
"``.ddd`edbbbbbbb",
"``##dd`e#bcccccb",
"``d.dd#``accccca",
"```##ddddacbbbca",
"````#.#ddacbbbca",
"`````d#..accccca",
"`````````aaaaaaa"
};
