/* XPM */
static char *variable_obj_xpm[] = {
/* width height num_colors chars_per_pixel */
"    16    16        8            1",
/* colors */
"` c None",
". c #04824c",
"# c #6eb17f",
"a c #98c290",
"b c #4aa06c",
"c c #24925c",
"d c #84bc84",
"e c #acd29c",
/* pixels */
"````````````````",
"````````````````",
"````````````````",
"````````````````",
"````````````````",
"``````#.c#``````",
"`````b#ea#b`````",
"````#beeeeb#````",
"````.dddddd.````",
"````c######c````",
"````#bddddb#````",
"`````bbadbb`````",
"``````#.c#``````",
"````````````````",
"````````````````",
"````````````````"
};
