/* XPM */
static char *variable_array_private_obj_xpm[] = {
/* width height num_colors chars_per_pixel */
"    16    16        8            1",
/* colors */
"` c None",
". c #cc1a2c",
"# c #e46264",
"a c #cc443c",
"b c #ee8d88",
"c c #f44e5c",
"d c #f47684",
"e c #cc2e34",
/* pixels */
"````````````````",
"````````````````",
"````````````````",
"``.``````````.``",
"`..``````````..`",
"`.``aaaaaaa```.`",
"..``abbbbba```..",
"..``abdddba```..",
"..``edcccde```..",
"..``eb###be```..",
"..``.bbbbb.```..",
"`.``.......```.`",
"`..``````````..`",
"``.``````````.``",
"````````````````",
"````````````````"
};
