/* XPM */
static char *variable_private_xpm[] = {
/* width height num_colors chars_per_pixel */
"    16    16        8            1",
/* colors */
"` c None",
". c #cc443c",
"# c #ee8d88",
"a c #f47684",
"b c #cc2e34",
"c c #f44e5c",
"d c #e46264",
"e c #cc1a2c",
/* pixels */
"````````````````",
"````````````````",
"````````````````",
"````````````````",
"````````````````",
"````.......`````",
"````.#####.`````",
"````.#aaa#.`````",
"````bacccab`````",
"````b#ddd#b`````",
"````e#####e`````",
"````eeeeeee`````",
"````````````````",
"````````````````",
"````````````````",
"````````````````"
};
