/* XPM */
static char *version_xpm[] = {
/* width height num_colors chars_per_pixel */
"    16    16        8            1",
/* colors */
"` c None",
". c #fc6a04",
"# c #fc9f06",
"a c #543304",
"b c #000000",
"c c #b47104",
"d c #000000",
"e c #000000",
/* pixels */
"````````````````",
"`````.....``````",
"````.#####.`````",
"```.#######.````",
"``.#########.```",
"`.##aa###aa##.``",
"`.###b###b###.``",
"`.###ba#ab###.``",
"`.###ab#ba###.``",
"`.####b#b####.``",
"`.####bab####.``",
"``.###cbc###.```",
"```.###b###.````",
"````.#####.`````",
"`````.....``````",
"````````````````"
};
