/* XPM */
static char *version_spec_xpm[] = {
/* width height num_colors chars_per_pixel */
"    16    16        8            1",
/* colors */
"` c None",
". c #fc6a04",
"# c #fc9e04",
"a c #543304",
"b c #b47104",
"c c #000000",
"d c #0482c4",
"e c #000000",
/* pixels */
"````````````````",
"````````````````",
"````....````````",
"```.####.```````",
"``.######.``````",
"`.#aa##aa#.`````",
".##bc##cb##ddddd",
".###c##c###ddddd",
".###c##c###.````",
".####cc####ddddd",
"`.###aa###.ddddd",
"``.######.``````",
"```.####.```````",
"````....````````",
"````````````````",
"````````````````"
};
