/* XPM */
static char *version_spec_obj_xpm[] = {
/* width height num_colors chars_per_pixel */
"    16    16        8            1",
/* colors */
"` c None",
". c #0482c4",
"# c #f1950e",
"a c #fcd397",
"b c #f4b249",
"c c #ec7e04",
"d c #fcf3e6",
"e c #fce6cc",
/* pixels */
"````````````````",
"````````````````",
"````````````````",
"`e#####b````````",
"e########```````",
"#baa##aa#b``````",
"##debbda##`.....",
"##adbadb#c`.....",
"##bdaed##c``````",
"###edda###`.....",
"b##bddb##b`.....",
"`###bb##b```````",
"``##cc#b````````",
"````````````````",
"````````````````",
"````````````````"
};
