/* XPM */
static char *version_spec_xpm[] = {
/* width height num_colors chars_per_pixel */
"    16    16        8            1",
/* colors */
"` c None",
". c #0482c4",
"# c #fc9e04",
"a c #fcf1d6",
"b c #fcc058",
"c c #fc6a04",
"d c #fcfdf9",
"e c #fcce7c",
/* pixels */
"````````````````",
"````````````````",
"````cccc````````",
"```c####c```````",
"``c######c``````",
"`c#de##ed#c`````",
"c##ba##db##.....",
"c###a##a###.....",
"c###a##a###c````",
"c####aa####.....",
"`c###bb###c.....",
"``c######c``````",
"```c####c```````",
"````cccc````````",
"````````````````",
"````````````````"
};
